<svg version="1.1" id="svg-social-facebook" height="20px" fill="grey" xmlns="http://www.w3.org/2000/svg" xmlns:xlink="http://www.w3.org/1999/xlink" x="0px" y="0px"
	 viewBox="0 0 27 26" enable-background="new 0 0 27 26" xml:space="preserve">
<title>Facebook-black</title>
<desc>Created with Sketch.</desc>
<g id="_x32_.1-Artikel">
	<g id="_x32_1_x5F_Artikel_x5F_Desktop" transform="translate(-1061.000000, -457.000000)">
		<path id="Facebook" d="M1075,483h-12.5c-0.8,0-1.4-0.6-1.4-1.4v-23.1c0-0.8,0.6-1.4,1.4-1.4h23.3
			c0.8,0,1.4,0.6,1.4,1.4v23.1c0,0.8-0.6,1.4-1.4,1.4h-6.7v-10.1h3.4l0.5-3.9h-3.9v-2.5c0-1.1,0.3-1.9,2-1.9l2.1,0v-3.5
			c-0.4,0-1.6-0.2-3-0.2c-3,0-5.1,1.8-5.1,5.2v2.9h-3.4v3.9h3.4V483L1075,483z"/>
	</g>
</g>
</svg>
