<?xml version="1.0" encoding="utf-8"?>
<!-- Generator: Adobe Illustrator 19.1.0, SVG Export Plug-In . SVG Version: 6.00 Build 0)  -->
<svg version="1.1" id="svg-social-facebook" xmlns="http://www.w3.org/2000/svg" xmlns:xlink="http://www.w3.org/1999/xlink"
	 x="0px" y="0px" viewBox="-284 410.9 27 20" style="enable-background:new -284 410.9 27 20;" xml:space="preserve">
<style type="text/css">
	.st0{fill:#FFFFFF;}
</style>
<title>Facebook-black</title>
<desc>Created with Sketch.</desc>
<g id="_x32_.1-Artikel">
	<g id="_x32_1_x5F_Artikel_x5F_Desktop" transform="translate(-1061.000000, -457.000000)">
		<path id="Facebook" class="st0" d="M790.9,887.9h-9.6c-0.6,0-1.1-0.5-1.1-1.1V869c0-0.6,0.5-1.1,1.1-1.1h17.9
			c0.6,0,1.1,0.5,1.1,1.1v17.8c0,0.6-0.5,1.1-1.1,1.1H794v-7.8h2.6l0.4-3h-3v-1.9c0-0.8,0.2-1.5,1.5-1.5h1.6V871
			c-0.3,0-1.2-0.2-2.3-0.2c-2.3,0-3.9,1.4-3.9,4v2.2h-2.6v3h2.6L790.9,887.9L790.9,887.9z"/>
	</g>
</g>
</svg>
